<svg xmlns="http://www.w3.org/2000/svg" version="1.1" xmlns:xlink="http://www.w3.org/1999/xlink" width="77" height="75"><svg width="77" height="75" viewBox="0 0 77 75" fill="none" xmlns="http://www.w3.org/2000/svg">
<path d="M34.959 0C39.8118 0 44.419 1.06467 48.5654 2.97363C49.7373 2.80203 50.9358 2.71193 52.1553 2.71191C65.7227 2.71191 76.7217 13.7109 76.7217 27.2783C76.7216 30.1681 76.2202 32.9404 75.3037 35.5156C76.2222 38.3365 76.7217 41.3472 76.7217 44.4746C76.7215 60.4423 63.7772 73.3866 47.8096 73.3867C45.4096 73.3867 43.0783 73.0921 40.8486 72.541C37.752 73.5792 34.4374 74.1426 30.9912 74.1426C13.8753 74.1426 0 60.2672 0 43.1514C2.18906e-05 39.1811 0.746949 35.3853 2.10742 31.8965C2.81391 14.1601 17.2508 0.000221664 34.959 0ZM60.9346 49.4805C58.3655 47.9973 54.8406 49.2661 52.9473 52.3105C52.3982 52.8066 51.9064 53.4077 51.5059 54.1016C49.778 57.095 50.3891 60.6828 52.8711 62.1162C53.3706 62.4046 53.9084 62.5823 54.4619 62.6602C54.73 62.944 55.0389 63.1922 55.3877 63.3936C57.7038 64.7303 60.8886 63.5496 62.501 60.7568C62.8165 60.2103 63.0466 59.642 63.1982 59.0723C63.5917 58.6984 63.9452 58.2549 64.2373 57.749C65.6071 55.376 65.1221 52.5316 63.1543 51.3955C62.9765 51.2929 62.7928 51.207 62.6045 51.1387C62.196 50.4587 61.6375 49.8864 60.9346 49.4805ZM22.9551 49.4277C21.0751 47.4343 18.2108 47.0818 16.5576 48.6406C16.4082 48.7815 16.2728 48.9329 16.1533 49.0938C15.3848 49.2899 14.6764 49.661 14.0859 50.2178C11.9278 52.2531 12.1319 55.9942 14.5049 58.6816C14.8225 59.3499 15.257 59.9934 15.8066 60.5762C18.1784 63.0907 21.7915 63.5349 23.877 61.5684C24.2965 61.1726 24.6201 60.7081 24.8535 60.2002C25.2023 60.0248 25.5284 59.8007 25.8213 59.5244C27.7667 57.6895 27.5503 54.3003 25.3379 51.9541C24.9049 51.495 24.4262 51.1115 23.9238 50.8027C23.6786 50.3185 23.3558 49.8528 22.9551 49.4277ZM38.5508 30.9336C37.8022 30.6716 37.007 30.5888 36.207 30.7256C33.2831 31.2261 31.3824 34.4543 31.8711 38.0059C31.7657 38.7383 31.7701 39.515 31.9053 40.3047C32.4887 43.7117 35.2527 46.0812 38.0781 45.5977C38.6465 45.5003 39.173 45.2928 39.6484 44.999C40.036 45.046 40.4321 45.0406 40.8291 44.9727C43.465 44.5212 45.1603 41.5781 44.6162 38.3994C44.5097 37.7774 44.3236 37.1934 44.0762 36.6582C44.1399 36.1192 44.1288 35.5524 44.0303 34.9766C43.5679 32.2756 41.3775 30.3969 39.1377 30.7803C38.9354 30.8149 38.7393 30.8658 38.5508 30.9336ZM62.2588 15.7988C60.8887 13.4257 58.1828 12.4224 56.2148 13.5586C56.0371 13.6612 55.871 13.7774 55.7178 13.9062C54.9248 13.9201 54.1501 14.1177 53.4473 14.5234C50.878 16.0068 50.2148 19.6944 51.9053 22.8564C52.0603 23.5795 52.3331 24.3056 52.7334 24.999C54.4617 27.9926 57.8758 29.2581 60.3584 27.8252C60.8578 27.5368 61.2799 27.1592 61.624 26.7188C62.0039 26.6285 62.3739 26.4855 62.7227 26.2842C65.0383 24.9468 65.6075 21.5984 63.9951 18.8057C63.6794 18.259 63.3026 17.7747 62.8848 17.3584C62.7577 16.8312 62.5506 16.3044 62.2588 15.7988ZM24.5234 11.8125C21.8848 10.457 18.4265 11.8969 16.6846 15.0303C16.1605 15.5526 15.6981 16.177 15.332 16.8896C13.7528 19.9643 14.5394 23.5181 17.0889 24.8281C17.602 25.0917 18.1483 25.2424 18.7051 25.293C18.9866 25.5631 19.3061 25.7965 19.6641 25.9805C22.0429 27.2023 25.166 25.8666 26.6396 22.998C26.9279 22.4369 27.1304 21.8586 27.2539 21.2822C27.6286 20.8895 27.9596 20.4288 28.2266 19.9092C29.4784 17.472 28.8558 14.6547 26.835 13.6162C26.6523 13.5224 26.4639 13.4457 26.2725 13.3867C25.8312 12.7276 25.2454 12.1835 24.5234 11.8125Z" fill="white"></path>
</svg><style>@media (prefers-color-scheme: light) { :root { filter: none; } }
@media (prefers-color-scheme: dark) { :root { filter: none; } }
</style></svg>