<svg width="169" height="169" viewBox="0 0 169 169" fill="none" xmlns="http://www.w3.org/2000/svg">
<circle cx="84.5" cy="84.5" r="84.5" fill="url(#paint0_linear_12_92)"/>
<path d="M95.1134 84.0762C92.7546 83.1896 92.7546 79.8037 92.6083 77.4458C92.0186 69.0471 94.9672 56.2249 91.4289 50.7735C88.9238 47.529 76.8325 47.8261 69.4635 48.2694C67.3972 48.5665 64.8921 49.005 63.123 49.8916C61.3539 50.7782 59.5847 52.2495 59.5847 53.5746C59.5847 55.4892 64.0099 55.1968 65.6281 57.7009C67.3972 60.3559 67.3972 66.0997 67.3972 70.8155C67.3972 76.2669 66.5103 83.4914 64.3024 83.7838C60.9104 83.93 58.995 80.5394 57.2259 78.0353C53.6877 73.1733 50.1494 67.1277 47.4934 61.233C46.1677 58.1395 45.4271 54.7489 43.5117 53.4237C40.5632 51.3582 35.2558 51.212 30.0947 51.3582C25.377 51.5044 18.593 50.9149 17.2674 53.7161C16.2342 56.8096 18.4468 59.757 19.6262 62.2658C25.6695 75.3803 32.1563 86.8774 40.1197 97.7802C47.4934 107.947 54.4189 116.054 67.9822 120.326C71.8176 121.505 88.6219 124.896 92.0139 120.326C93.1933 118.558 92.9008 114.578 93.4905 111.63C94.0802 108.683 94.8162 105.736 97.6185 105.59C99.9773 105.443 101.303 107.504 102.78 108.98C104.402 110.602 105.728 111.928 106.908 113.404C109.71 116.205 112.658 120.034 116.197 121.51C121.061 123.575 128.58 122.986 135.657 122.689C141.408 122.543 145.536 121.364 145.979 117.973C146.276 115.318 143.323 111.489 141.554 109.277C137.129 103.826 135.067 102.204 130.052 97.1907C127.84 94.9791 125.037 92.6212 125.037 89.9709C124.891 88.3487 126.217 86.8774 127.396 85.2551C132.557 77.592 137.719 72.1406 142.436 64.1804C143.762 61.8225 146.861 56.3711 145.682 53.7161C144.356 50.7687 136.983 51.6506 132.411 51.6506C126.514 51.6506 118.848 51.2073 117.371 52.3862C114.569 54.3009 113.39 57.3991 112.064 60.3465C109.115 67.1277 105.134 74.0505 101.006 79.2095C99.5291 80.9779 96.7316 84.661 95.1087 84.0715L95.1134 84.0762Z" fill="white"/>
<defs>
<linearGradient id="paint0_linear_12_92" x1="84.5" y1="0" x2="84.5" y2="169" gradientUnits="userSpaceOnUse">
<stop stop-color="#FF6EB4"/>
<stop offset="1" stop-color="#71C8FF"/>
</linearGradient>
</defs>
</svg>
