<svg width="169" height="169" viewBox="0 0 169 169" fill="none" xmlns="http://www.w3.org/2000/svg">
<circle cx="84.5" cy="84.5" r="84.5" fill="url(#paint0_linear_12_89)"/>
<path d="M145.398 55.6532C144.698 52.9997 143.294 50.5766 141.329 48.6314C139.365 46.6862 136.91 45.2886 134.216 44.5815C117.884 42.6877 101.445 41.8342 85 42.0265C68.5558 41.8342 52.116 42.6877 35.7838 44.5815C33.09 45.2886 30.6354 46.6862 28.6709 48.6314C26.7062 50.5766 25.3021 52.9997 24.6018 55.6532C22.8128 65.5165 21.943 75.52 22.0032 85.5386C21.94 95.6091 22.8098 105.664 24.6018 115.579C25.3384 118.19 26.7587 120.564 28.7209 122.467C30.683 124.369 33.1184 125.732 35.7838 126.418C52.116 128.312 68.5558 129.166 85 128.973C101.445 129.166 117.884 128.312 134.216 126.418C136.882 125.732 139.317 124.369 141.279 122.467C143.241 120.564 144.662 118.19 145.398 115.579C147.19 105.664 148.06 95.6091 147.997 85.5386C148.057 75.52 147.187 65.5165 145.398 55.6532ZM72.0856 104.043V67.1893L105.08 85.5386L72.0856 103.965V104.043Z" fill="white"/>
<defs>
<linearGradient id="paint0_linear_12_89" x1="84.5" y1="0" x2="84.5" y2="169" gradientUnits="userSpaceOnUse">
<stop stop-color="#FF6EB4"/>
<stop offset="1" stop-color="#71C8FF"/>
</linearGradient>
</defs>
</svg>
