<svg width="95" height="93" viewBox="0 0 95 93" fill="none" xmlns="http://www.w3.org/2000/svg">
<g filter="url(#filter0_d_104_327)">
<path d="M43.959 9C48.8118 9 53.419 10.0647 57.5654 11.9736C58.7373 11.802 59.9358 11.7119 61.1553 11.7119C74.7227 11.7119 85.7217 22.7109 85.7217 36.2783C85.7216 39.1681 85.2202 41.9404 84.3037 44.5156C85.2222 47.3365 85.7217 50.3472 85.7217 53.4746C85.7215 69.4423 72.7772 82.3866 56.8096 82.3867C54.4096 82.3867 52.0783 82.0921 49.8486 81.541C46.752 82.5792 43.4374 83.1426 39.9912 83.1426C22.8753 83.1426 9 69.2672 9 52.1514C9.00002 48.1811 9.74695 44.3853 11.1074 40.8965C11.8139 23.1601 26.2508 9.00022 43.959 9ZM69.9346 58.4805C67.3655 56.9973 63.8406 58.2661 61.9473 61.3105C61.3982 61.8066 60.9064 62.4077 60.5059 63.1016C58.778 66.095 59.3891 69.6828 61.8711 71.1162C62.3706 71.4046 62.9084 71.5823 63.4619 71.6602C63.73 71.944 64.0389 72.1922 64.3877 72.3936C66.7038 73.7303 69.8886 72.5496 71.501 69.7568C71.8165 69.2103 72.0466 68.642 72.1982 68.0723C72.5917 67.6984 72.9452 67.2549 73.2373 66.749C74.6071 64.376 74.1221 61.5316 72.1543 60.3955C71.9765 60.2929 71.7928 60.207 71.6045 60.1387C71.196 59.4587 70.6375 58.8864 69.9346 58.4805ZM31.9551 58.4277C30.0751 56.4343 27.2108 56.0818 25.5576 57.6406C25.4082 57.7815 25.2728 57.9329 25.1533 58.0938C24.3848 58.2899 23.6764 58.661 23.0859 59.2178C20.9278 61.2531 21.1319 64.9942 23.5049 67.6816C23.8225 68.3499 24.257 68.9934 24.8066 69.5762C27.1784 72.0907 30.7915 72.5349 32.877 70.5684C33.2965 70.1726 33.6201 69.7081 33.8535 69.2002C34.2023 69.0248 34.5284 68.8007 34.8213 68.5244C36.7667 66.6895 36.5503 63.3003 34.3379 60.9541C33.9049 60.495 33.4262 60.1115 32.9238 59.8027C32.6786 59.3185 32.3558 58.8528 31.9551 58.4277ZM47.5508 39.9336C46.8022 39.6716 46.007 39.5888 45.207 39.7256C42.2831 40.2261 40.3824 43.4543 40.8711 47.0059C40.7657 47.7383 40.7701 48.515 40.9053 49.3047C41.4887 52.7117 44.2527 55.0812 47.0781 54.5977C47.6465 54.5003 48.173 54.2928 48.6484 53.999C49.036 54.046 49.4321 54.0406 49.8291 53.9727C52.465 53.5212 54.1603 50.5781 53.6162 47.3994C53.5097 46.7774 53.3236 46.1934 53.0762 45.6582C53.1399 45.1192 53.1288 44.5524 53.0303 43.9766C52.5679 41.2756 50.3775 39.3969 48.1377 39.7803C47.9354 39.8149 47.7393 39.8658 47.5508 39.9336ZM71.2588 24.7988C69.8887 22.4257 67.1828 21.4224 65.2148 22.5586C65.0371 22.6612 64.871 22.7774 64.7178 22.9062C63.9248 22.9201 63.1501 23.1177 62.4473 23.5234C59.878 25.0068 59.2148 28.6944 60.9053 31.8564C61.0603 32.5795 61.3331 33.3056 61.7334 33.999C63.4617 36.9926 66.8758 38.2581 69.3584 36.8252C69.8578 36.5368 70.2799 36.1592 70.624 35.7188C71.0039 35.6285 71.3739 35.4855 71.7227 35.2842C74.0383 33.9468 74.6075 30.5984 72.9951 27.8057C72.6794 27.259 72.3026 26.7747 71.8848 26.3584C71.7577 25.8312 71.5506 25.3044 71.2588 24.7988ZM33.5234 20.8125C30.8848 19.457 27.4265 20.8969 25.6846 24.0303C25.1605 24.5526 24.6981 25.177 24.332 25.8896C22.7528 28.9643 23.5394 32.5181 26.0889 33.8281C26.602 34.0917 27.1483 34.2424 27.7051 34.293C27.9866 34.5631 28.3061 34.7965 28.6641 34.9805C31.0429 36.2023 34.166 34.8666 35.6396 31.998C35.9279 31.4369 36.1304 30.8586 36.2539 30.2822C36.6286 29.8895 36.9596 29.4288 37.2266 28.9092C38.4784 26.472 37.8558 23.6547 35.835 22.6162C35.6523 22.5224 35.4639 22.4457 35.2725 22.3867C34.8312 21.7276 34.2454 21.1835 33.5234 20.8125Z" fill="white"/>
</g>
<defs>
<filter id="filter0_d_104_327" x="0" y="0" width="94.7217" height="92.1426" filterUnits="userSpaceOnUse" color-interpolation-filters="sRGB">
<feFlood flood-opacity="0" result="BackgroundImageFix"/>
<feColorMatrix in="SourceAlpha" type="matrix" values="0 0 0 0 0 0 0 0 0 0 0 0 0 0 0 0 0 0 127 0" result="hardAlpha"/>
<feOffset/>
<feGaussianBlur stdDeviation="4.5"/>
<feComposite in2="hardAlpha" operator="out"/>
<feColorMatrix type="matrix" values="0 0 0 0 1 0 0 0 0 1 0 0 0 0 1 0 0 0 1 0"/>
<feBlend mode="normal" in2="BackgroundImageFix" result="effect1_dropShadow_104_327"/>
<feBlend mode="normal" in="SourceGraphic" in2="effect1_dropShadow_104_327" result="shape"/>
</filter>
</defs>
</svg>
