<svg width="169" height="169" viewBox="0 0 169 169" fill="none" xmlns="http://www.w3.org/2000/svg">
<circle cx="84.5" cy="84.5" r="84.5" fill="url(#paint0_linear_12_86)"/>
<path fill-rule="evenodd" clip-rule="evenodd" d="M85.3238 117.483C84.9629 117.253 84.4953 117.278 84.161 117.546L66.5618 131.631C66.44 131.728 66.2972 131.796 66.1446 131.828L63.1062 132.474C62.5925 132.583 62.082 132.276 61.9372 131.771L51.2292 94.4445C51.1382 94.1273 50.8965 93.8754 50.5833 93.7713L14.6603 81.8347C13.7682 81.5383 13.7409 80.2865 14.6191 79.9514L134.768 34.1086C134.953 34.0378 135.156 34.0239 135.349 34.0686L137.071 34.4661C137.591 34.5862 137.925 35.0939 137.829 35.6192L119.309 137.535C119.181 138.234 118.386 138.581 117.787 138.199L85.3238 117.483ZM115.156 54.1957C114.934 54.1691 114.71 54.2176 114.519 54.3336L60.2992 87.2164C59.9298 87.4405 59.7461 87.8764 59.8436 88.2972L65.8039 114.02C65.9283 114.557 66.4639 114.892 67.0012 114.769L67.2092 114.721C67.5556 114.642 67.834 114.385 67.9403 114.046L74.3134 93.7158C74.368 93.5416 74.4692 93.3857 74.6062 93.2649L116.783 56.0685C117.431 55.4972 117.098 54.4284 116.241 54.3256L115.156 54.1957Z" fill="white"/>
<defs>
<linearGradient id="paint0_linear_12_86" x1="84.5" y1="0" x2="84.5" y2="169" gradientUnits="userSpaceOnUse">
<stop stop-color="#FF6EB4"/>
<stop offset="1" stop-color="#71C8FF"/>
</linearGradient>
</defs>
</svg>
